<svg xmlns="http://www.w3.org/2000/svg" xmlns:xlink="http://www.w3.org/1999/xlink" viewBox="0 0 1116 1112" width="1116" height="1112" preserveAspectRatio="xMidYMid meet" style="width: 100%; height: 100%; transform: translate3d(0px, 0px, 0px); content-visibility: visible;"><defs><clipPath id="__lottie_element_1953"><rect width="1116" height="1112" x="0" y="0"/></clipPath><clipPath id="__lottie_element_1958"><path d="M0,0 L1116,0 L1116,1112 L0,1112z"/></clipPath></defs><g clip-path="url(#__lottie_element_1953)"><g transform="matrix(1.1799999475479126,0,0,1.1799999475479126,-574.7999267578125,-81.199951171875)" opacity="1" style="display: block;"><rect width="1920" height="1080" fill="#ffffff00"/></g><g clip-path="url(#__lottie_element_1958)" transform="matrix(0.699999988079071,-0.0000011908722399311955,0.0000011908722399311955,0.699999988079071,167.39932250976562,166.80068969726562)" opacity="1" style="display: block;"><g transform="matrix(0.6600000262260437,0,0,0.6600000262260437,615.4199829101562,531.5800170898438)" opacity="1" style="display: block;"><g opacity="1" transform="matrix(1,0,0,1,-87,37)"><path fill="rgb(255,198,38)" fill-opacity="1" d=" M0,-341 C188.19790649414062,-341 341,-188.19790649414062 341,0 C341,188.19790649414062 188.19790649414062,341 0,341 C-188.19790649414062,341 -341,188.19790649414062 -341,0 C-341,-188.19790649414062 -188.19790649414062,-341 0,-341z"/><path stroke-linecap="butt" stroke-linejoin="miter" fill-opacity="0" stroke-miterlimit="4" stroke="rgb(185,145,33)" stroke-opacity="1" stroke-width="0" d=" M0,-341 C188.19790649414062,-341 341,-188.19790649414062 341,0 C341,188.19790649414062 188.19790649414062,341 0,341 C-188.19790649414062,341 -341,188.19790649414062 -341,0 C-341,-188.19790649414062 -188.19790649414062,-341 0,-341z"/></g></g><g transform="matrix(0.6600000262260437,0,0,0.6600000262260437,481.4399719238281,487.3600158691406)" opacity="1" style="display: block;"><g opacity="1" transform="matrix(1,0,0,1,116,104)"><path stroke-linecap="butt" stroke-linejoin="miter" fill-opacity="0" stroke-miterlimit="4" stroke="rgb(185,145,33)" stroke-opacity="1" stroke-width="12" d=" M0,-274 C151.22059631347656,-274 274,-151.22059631347656 274,0 C274,151.22059631347656 151.22059631347656,274 0,274 C-151.22059631347656,274 -274,151.22059631347656 -274,0 C-274,-151.22059631347656 -151.22059631347656,-274 0,-274z"/></g></g><g transform="matrix(6.236999988555908,0,0,6.236999988555908,557.4386596679688,657.1267700195312)" opacity="1" fill="rgb(186,146,33)" font-size="46" font-family="Gilroy" font-style="normal" font-weight="normal" aria-label="$" style="display: block;"><g stroke-linecap="butt" stroke-linejoin="round" stroke-miterlimit="4" transform="matrix(1,0,0,1,-12.604000091552734,0)" opacity="1" style="display: inherit;"><g><g transform="matrix(1,0,0,1,0,0)" opacity="1" style="display: block;"><path d=" M14.96,-6.81 C14.96,-6.81 14.96,-11.77 14.96,-11.77 C16.35,-11.07 17.05,-10.38 17.05,-9.22 C17.05,-8.25 16.54,-7.23 14.96,-6.81z M9.68,-23.39 C9.68,-24.51 10.38,-25.39 11.72,-25.71 C11.72,-25.71 11.72,-20.85 11.72,-20.85 C10.1,-21.77 9.68,-22.51 9.68,-23.39z M24.46,-9.31 C24.46,-16.07 18.99,-17.6 14.96,-19.32 C14.96,-19.32 14.96,-25.57 14.96,-25.57 C16.31,-25.11 17.23,-24.18 17.84,-22.56 C17.84,-22.56 24.09,-26.22 24.09,-26.22 C22.28,-30.3 18.95,-32.43 14.96,-32.94 C14.96,-32.94 14.96,-37.06 14.96,-37.06 C14.96,-37.06 11.72,-37.06 11.72,-37.06 C11.72,-37.06 11.72,-33.03 11.72,-33.03 C6.81,-32.57 2.27,-29.46 2.27,-23.44 C2.27,-17.23 7.09,-14.96 11.12,-13.34 C11.3,-13.25 11.53,-13.2 11.72,-13.11 C11.72,-13.11 11.72,-6.72 11.72,-6.72 C9.64,-7.09 8.29,-8.38 7.32,-10.61 C7.32,-10.61 0.93,-6.9 0.93,-6.9 C2.59,-2.46 6.49,0.23 11.72,0.6 C11.72,0.6 11.72,4.63 11.72,4.63 C11.72,4.63 14.96,4.63 14.96,4.63 C14.96,4.63 14.96,0.56 14.96,0.56 C20.48,-0.09 24.46,-3.52 24.46,-9.31z"/><g opacity="1" transform="matrix(0.46000000834465027,0,0,0.46000000834465027,0,0)"/></g></g></g></g></g></g></svg>